<svg xmlns="http://www.w3.org/2000/svg" xmlns:xlink="http://www.w3.org/1999/xlink" width="500" zoomAndPan="magnify" viewBox="0 0 375 374.999991" height="500" preserveAspectRatio="xMidYMid meet" version="1.0"><defs><clipPath id="576a701623"><path d="M 13.140625 13.140625 L 361.890625 13.140625 L 361.890625 361.890625 L 13.140625 361.890625 Z M 13.140625 13.140625 " clip-rule="nonzero"/></clipPath></defs><g clip-path="url(#576a701623)"><path fill="#4d0c12" d="M 152.621094 13.113281 C 75.832031 13.113281 13.113281 75.832031 13.113281 152.621094 C 13.113281 229.410156 75.832031 292.128906 152.621094 292.128906 C 183.175781 292.128906 211.398438 282.050781 234.433594 265.257812 L 324.316406 355.140625 C 324.816406 355.660156 325.34375 356.15625 325.894531 356.625 C 326.441406 357.097656 327.015625 357.539062 327.609375 357.949219 C 328.203125 358.363281 328.816406 358.742188 329.449219 359.09375 C 330.082031 359.445312 330.730469 359.765625 331.394531 360.054688 C 332.058594 360.339844 332.734375 360.59375 333.421875 360.8125 C 334.113281 361.03125 334.808594 361.21875 335.515625 361.367188 C 336.226562 361.515625 336.9375 361.632812 337.65625 361.710938 C 338.375 361.789062 339.097656 361.832031 339.820312 361.839844 C 340.542969 361.847656 341.265625 361.820312 341.984375 361.753906 C 342.707031 361.691406 343.421875 361.589844 344.132812 361.453125 C 344.84375 361.320312 345.542969 361.148438 346.238281 360.941406 C 346.929688 360.738281 347.613281 360.496094 348.28125 360.222656 C 348.953125 359.953125 349.605469 359.644531 350.246094 359.308594 C 350.882812 358.96875 351.503906 358.597656 352.105469 358.199219 C 352.710938 357.796875 353.289062 357.371094 353.851562 356.910156 C 354.410156 356.453125 354.945312 355.96875 355.457031 355.457031 C 355.96875 354.945312 356.453125 354.410156 356.910156 353.851562 C 357.371094 353.289062 357.796875 352.710938 358.199219 352.105469 C 358.597656 351.503906 358.96875 350.882812 359.308594 350.246094 C 359.644531 349.605469 359.953125 348.953125 360.222656 348.28125 C 360.496094 347.613281 360.738281 346.929688 360.941406 346.238281 C 361.148438 345.542969 361.320312 344.84375 361.453125 344.132812 C 361.589844 343.421875 361.691406 342.707031 361.753906 341.984375 C 361.820312 341.265625 361.847656 340.542969 361.839844 339.820312 C 361.832031 339.097656 361.789062 338.375 361.710938 337.65625 C 361.632812 336.9375 361.515625 336.226562 361.367188 335.515625 C 361.21875 334.808594 361.03125 334.113281 360.8125 333.421875 C 360.59375 332.734375 360.339844 332.058594 360.054688 331.394531 C 359.765625 330.730469 359.445312 330.082031 359.09375 329.449219 C 358.742188 328.816406 358.363281 328.203125 357.949219 327.609375 C 357.539062 327.015625 357.097656 326.441406 356.625 325.894531 C 356.15625 325.34375 355.660156 324.816406 355.140625 324.316406 L 265.257812 234.433594 C 282.050781 211.398438 292.128906 183.175781 292.128906 152.621094 C 292.128906 75.832031 229.410156 13.113281 152.621094 13.113281 Z M 152.621094 56.710938 C 205.851562 56.710938 248.535156 99.394531 248.535156 152.621094 C 248.535156 205.851562 205.851562 248.535156 152.621094 248.535156 C 99.394531 248.535156 56.710938 205.851562 56.710938 152.621094 C 56.710938 99.394531 99.394531 56.710938 152.621094 56.710938 Z M 152.621094 56.710938 " fill-opacity="1" fill-rule="nonzero"/></g></svg>